<?xml version="1.0" standalone="no"?><!DOCTYPE svg PUBLIC "-//W3C//DTD SVG 1.1//EN" "http://www.w3.org/Graphics/SVG/1.1/DTD/svg11.dtd"><svg t="1695201571093" class="icon" viewBox="0 0 1024 1024" version="1.1" xmlns="http://www.w3.org/2000/svg" p-id="906" xmlns:xlink="http://www.w3.org/1999/xlink" width="200" height="200"><path d="M120 740a16 16 0 0 0 16-16c0-17.616 9.68-32.112 24.688-38.336a39.888 39.888 0 0 1 43.6 8.672l11.712 11.712v-23.44c0-16.24 9.68-30.736 24.688-36.96a39.92 39.92 0 0 1 43.6 8.672l69.248 69.248a55.68 55.68 0 0 0 39.616 16.4h410.128L976 588H152l-34.544 152H120z" fill="#4DB6AC" p-id="907"></path><path d="M254.4 356h-32a8 8 0 0 1 0-16h32a8 8 0 0 1 0 16zM462.4 356h-176a8 8 0 0 1 0-16h176a8 8 0 0 1 0 16zM542.4 308h-192a8 8 0 0 1 0-16h192a8 8 0 0 1 0 16z" fill="#263238" p-id="908"></path><path d="M86.416 100a48 48 0 1 1 96 0 48 48 0 1 1 0 96h-96a48 48 0 1 1 0-96z" fill="#4FC3F7" p-id="909"></path><path d="M822.4 100h-64a8 8 0 0 1 0-16h64a8 8 0 0 1 0 16z" fill="#263238" p-id="910"></path><path d="M790.4 132a8 8 0 0 1-8-8v-64a8 8 0 0 1 16 0v64a8 8 0 0 1-8 8zM742.4 180h-64a8 8 0 0 1 0-16h64a8 8 0 0 1 0 16z" fill="#263238" p-id="911"></path><path d="M710.4 212a8 8 0 0 1-8-8v-64a8 8 0 0 1 16 0v64a8 8 0 0 1-8 8z" fill="#263238" p-id="912"></path><path d="M886.416 348a32 32 0 1 1 64 0 32 32 0 1 1 0 64h-64a32 32 0 1 1 0-64zM336.576 740.576l-69.248-69.248c-10.08-10.096-27.328-2.96-27.328 11.296v81.376l-52.688-52.688c-10.064-10.08-27.312-2.944-27.312 11.312v1.376a40 40 0 0 1-40 40H0v8c0 110.464 89.536 200 200 200h624c110.464 0 200-89.536 200-200v-8H393.136a80.032 80.032 0 0 1-56.56-23.424z" fill="#4FC3F7" p-id="913"></path><path d="M184 596H64c-13.232 0-24-10.768-24-24v-48c0-13.232 10.768-24 24-24h120c13.232 0 24 10.768 24 24v48c0 13.232-10.768 24-24 24z m-120-80a8 8 0 0 0-8 8v48c0 4.4 3.6 8 8 8h120c4.4 0 8-3.6 8-8v-48a8 8 0 0 0-8-8H64z" fill="#263238" p-id="914"></path><path d="M117.456 748a8 8 0 0 1-7.792-9.776l34.544-152a8 8 0 0 1 7.792-6.24H976a8 8 0 0 1 5.28 14l-172.72 152a8 8 0 1 1-10.56-12l156.8-138H158.384l-33.136 145.76a8 8 0 0 1-7.792 6.256z" fill="#263238" p-id="915"></path><path d="M784 588h-112l-88-160h48z" fill="#FFD740" p-id="916"></path><path d="M784 596h-112a8 8 0 0 1-7.008-4.144l-88-160a8 8 0 0 1 7.024-11.856h48c2.192 0 4.304 0.896 5.792 2.496l152 160a8 8 0 0 1-5.808 13.504z m-107.264-16h88.624l-136.8-144h-31.024l79.2 144z" fill="#263238" p-id="917"></path><path d="M786.672 596H784a8.096 8.096 0 0 1-5.152-1.872l-6.608-5.568a8.016 8.016 0 0 1 9.264-12.992l9.28 5.568a8 8 0 0 1-4.112 14.864zM672 596H384a8 8 0 1 1-6.656-12.448l32-48a8.016 8.016 0 0 1 6.656-3.568h229.616a8 8 0 0 1 7.008 4.144l26.384 48a8.016 8.016 0 0 1-7.008 11.872z m-273.04-16h259.52l-17.6-32H420.288l-21.328 32z" fill="#263238" p-id="918"></path><path d="M894.192 668h-560a8 8 0 0 1 0-16h560a8 8 0 0 1 0 16z" fill="#263238" p-id="919"></path></svg>