<?xml version="1.0" standalone="no"?><!DOCTYPE svg PUBLIC "-//W3C//DTD SVG 1.1//EN" "http://www.w3.org/Graphics/SVG/1.1/DTD/svg11.dtd"><svg t="1592744913453" class="icon" viewBox="0 0 1024 1024" version="1.1" xmlns="http://www.w3.org/2000/svg" p-id="4309" xmlns:xlink="http://www.w3.org/1999/xlink" width="200" height="200"><defs><style type="text/css"></style></defs><path d="M936.672 193.216l-226.88-64a32 32 0 0 0-40.256 25.504A159.296 159.296 0 0 1 512 288c-30.56 0-56.16-13.12-79.296-27.296a32 32 0 0 0-33.44 54.56C428.896 333.44 465.44 352 512 352a223.104 223.104 0 0 0 212.096-152.288L896 248.224v224.736l-121.728-24.352A32.032 32.032 0 0 0 736 480v352a32 32 0 0 1-32 32H320c-17.632 0-32-14.336-32-32V448a31.936 31.936 0 0 0-38.272-31.36L128 440.96V248.128l200.8-57.376a32 32 0 0 0-17.568-61.536l-224 64C73.472 197.152 64 209.728 64 224v256a31.936 31.936 0 0 0 38.272 31.36L224 487.04V832c0 52.928 43.072 96 96 96h384c52.928 0 96-43.072 96-96v-312.96l121.728 24.352c9.44 1.92 19.2-0.544 26.56-6.624 7.392-6.112 11.712-15.168 11.712-24.768V224a32 32 0 0 0-23.328-30.784zM320 768a32 32 0 0 0 32 32h320a32 32 0 1 0 0-64H352a32 32 0 0 0-32 32z" p-id="4310"></path></svg>