<?xml version="1.0" standalone="no"?><!DOCTYPE svg PUBLIC "-//W3C//DTD SVG 1.1//EN" "http://www.w3.org/Graphics/SVG/1.1/DTD/svg11.dtd"><svg t="1592745080994" class="icon" viewBox="0 0 1159 1024" version="1.1" xmlns="http://www.w3.org/2000/svg" p-id="7625" xmlns:xlink="http://www.w3.org/1999/xlink" width="226.3671875" height="200"><defs><style type="text/css"></style></defs><path d="M256.112527 375.650462c103.187692 0 187.14444-84.013011 187.14444-187.256967 0-103.243956-83.956747-187.256967-187.133187-187.256968C152.924835 1.125275 68.979341 85.149538 68.979341 188.393495c0 103.243956 83.956747 187.256967 187.133186 187.256967z m0-306.344792c65.592264 0 119.020308 53.450549 119.020308 119.087825 0 65.626022-53.428044 119.087824-119.020308 119.087824-65.581011 0-119.009055-53.461802-119.009054-119.087824S190.531516 69.30567 256.112527 69.30567zM664.609758 375.650462c103.187692 0 187.133187-84.013011 187.133187-187.256967 0-103.243956-83.945495-187.256967-187.133187-187.256968-103.187692 0-187.14444 84.013011-187.144439 187.256968 0 103.243956 83.956747 187.256967 187.133186 187.256967z m0-306.344792c65.581011 0 119.009055 53.450549 119.009055 119.087825 0 65.626022-53.428044 119.087824-119.009055 119.087824-65.592264 0-119.020308-53.461802-119.020307-119.087824S599.017495 69.30567 664.609758 69.30567zM1115.214769 516.523604l-229.263472 62.227693V444.123429a33.848264 33.848264 0 0 0-33.915781-33.949539H35.052308A33.848264 33.848264 0 0 0 1.125275 444.112176v544.813011a33.848264 33.848264 0 0 0 33.927033 33.938286h816.690637a33.848264 33.848264 0 0 0 33.927033-33.938286v-151.912088l229.263473 62.238945c2.82444 0.855209 5.941451 1.125275 9.047208 1.125275 7.348044 0 14.696088-2.543121 20.637539-7.066726a33.904527 33.904527 0 0 0 13.278242-27.152879V549.336615c0-10.746374-5.086242-20.648791-13.278242-27.152879a33.983297 33.983297 0 0 0-29.403429-5.660132z m-297.387604 438.181978H68.979341V478.039209h748.566505v476.643868h0.281319z m272.226461-133.232527l-204.102329-55.17222V649.193495l204.102329-55.442286V821.450549z" fill="#2E323F" p-id="7626"></path></svg>