<?xml version="1.0" standalone="no"?><!DOCTYPE svg PUBLIC "-//W3C//DTD SVG 1.1//EN" "http://www.w3.org/Graphics/SVG/1.1/DTD/svg11.dtd"><svg t="1592745150634" class="icon" viewBox="0 0 1280 1024" version="1.1" xmlns="http://www.w3.org/2000/svg" p-id="10087" xmlns:xlink="http://www.w3.org/1999/xlink" width="250" height="200"><defs><style type="text/css"></style></defs><path d="M1038.4 255.8l-95.2-95.2A112.504 112.504 0 0 0 864 128H410.4c-29.6 0-58.2 11.8-79.2 32.6L236 255.8H0v511.4h128c35.2 0 63.6-28.4 63.8-63.4h18.2l169.2 152.8c61.8 50.2 147.6 51.4 211.2 7.6 25 21.6 52 31.8 82.2 31.8 36.4 0 70.6-14.8 97.6-48 44.2 17.4 96.4 5.2 128-33.6l52.4-64.6c11.2-13.8 18.2-29.6 21.8-46h115.8c0.2 35 28.8 63.4 63.8 63.4h128V255.8H1038.4zM96 703.2c-17.6 0-32-14.4-32-32s14.4-32 32-32 32 14.4 32 32c0 17.8-14.4 32-32 32z m780-13.8l-52.2 64.4c-5.6 6.8-15.6 8-22.6 2.4l-47.8-38.8-60 73c-12 14.6-30 9.6-36 4.8l-73.6-63-31.2 38.4c-27.8 34.2-78.4 39.4-110.6 13.2l-194.6-176H192V351.6h83.8l123.4-123.2c4-1.6 7.4-3 11.4-4.6H524l-77.4 71c-58.8 53.8-62.2 144.6-8.8 202.6 29.6 32.4 122.4 82.4 203 8.8l16.4-15 216.4 175.6c6.8 5.6 7.8 15.8 2.4 22.6z m212-81.6h-138.4c-4.6-5.6-9.8-10.8-15.4-15.4l-205.4-166.8 25-22.8c13-12 14-32.2 2-45.2L734 334.2c-12-13-32.2-13.8-45.2-2l-110.4 101.2c-19 17.4-51.4 18.8-69.2 0-18.6-19.8-17-50.2 2.4-67.8l131.2-120.2c14.8-13.6 34-21 54-21l167.4-0.4c4.2 0 8.2 1.6 11 4.6l123.4 123.2H1088v256z m96 95.4c-17.6 0-32-14.4-32-32s14.4-32 32-32 32 14.4 32 32c0 17.8-14.4 32-32 32z" p-id="10088"></path></svg>