<?xml version="1.0" standalone="no"?><!DOCTYPE svg PUBLIC "-//W3C//DTD SVG 1.1//EN" "http://www.w3.org/Graphics/SVG/1.1/DTD/svg11.dtd"><svg t="1592747162231" class="icon" viewBox="0 0 1024 1024" version="1.1" xmlns="http://www.w3.org/2000/svg" p-id="2263" xmlns:xlink="http://www.w3.org/1999/xlink" width="200" height="200"><defs><style type="text/css"></style></defs><path d="M860.682 221.476h-116.07V105.41H279.869v116.065h-116.3c-64.302 0-116.306 52.009-116.306 116.065v464.737c0 64.302 52.004 116.311 116.306 116.311h697.113c64.062 0 116.06-52.009 116.06-116.31V337.545c0-64.061-52.003-116.07-116.06-116.07z m-522.66-58.148H686.46v58.148H338.022v-58.148zM686.46 628.07H570.148v116.06A58.102 58.102 0 0 1 512 802.279c-31.908 0-57.912-25.999-57.912-58.147V628.07H338.022c-32.148 0-58.153-26.01-58.153-57.923A58.112 58.112 0 0 1 338.022 512h116.066V395.7c0-32.15 26.004-58.154 57.912-58.154a58.112 58.112 0 0 1 58.148 58.153V512h116.31a58.102 58.102 0 0 1 58.149 58.148c0.005 31.913-25.995 57.922-58.148 57.922z" p-id="2264"></path></svg>