<?xml version="1.0" standalone="no"?><!DOCTYPE svg PUBLIC "-//W3C//DTD SVG 1.1//EN" "http://www.w3.org/Graphics/SVG/1.1/DTD/svg11.dtd"><svg t="1689606786782" class="icon" viewBox="0 0 1024 1024" version="1.1" xmlns="http://www.w3.org/2000/svg" p-id="1122" xmlns:xlink="http://www.w3.org/1999/xlink" width="200" height="200"><path d="M959.99 511h-0.02c-0.53-17.21-14.64-31-31.97-31s-31.45 13.79-31.97 31H896c0 0.33 0.01 0.67 0.01 1 0 212.08-171.92 384-384 384S128 724.08 128 512s171.92-384 384-384c0.33 0 0.67 0.01 1 0.01v-0.03c17.21-0.53 31-14.64 31-31.97 0-17.34-13.79-31.45-31-31.97v-0.02c-0.33 0-0.67-0.01-1-0.01C264.58 64 64 264.58 64 512s200.58 448 448 448 448-200.58 448-448c0-0.33-0.01-0.67-0.01-1z" p-id="1123"></path><path d="M960 252V96c0-17.67-14.33-32-32-32H772c-17.67 0-32 14.33-32 32s14.33 32 32 32h78.75l-324.3 324.29c-12.5 12.5-12.5 32.76 0 45.25 12.5 12.5 32.76 12.5 45.25 0L896 173.25V252c0 17.67 14.33 32 32 32s32-14.33 32-32z" p-id="1124"></path></svg>